<mxfile host="app.diagrams.net" modified="2021-03-15T11:07:56.028Z" agent="5.0 (Windows NT 10.0; Win64; x64) AppleWebKit/537.36 (KHTML, like Gecko) Chrome/89.0.4389.82 Safari/537.36" etag="RH8Y2zPbLnttTCIB-DGq" version="14.4.8" type="github">
  <diagram id="QeCQDIGe3pX-rb_htyMR" name="Page-1">
    <mxGraphModel dx="813" dy="459" grid="1" gridSize="10" guides="1" tooltips="1" connect="1" arrows="1" fold="1" page="1" pageScale="1" pageWidth="850" pageHeight="1100" math="0" shadow="0">
      <root>
        <mxCell id="0" />
        <mxCell id="1" parent="0" />
        <mxCell id="rR9qykWhWmiOwImqZdHb-17" value="Program" style="swimlane;fontStyle=0;childLayout=stackLayout;horizontal=1;startSize=26;fillColor=none;horizontalStack=0;resizeParent=1;resizeParentMax=0;resizeLast=0;collapsible=1;marginBottom=0;" vertex="1" parent="1">
          <mxGeometry x="70" y="70" width="140" height="52" as="geometry" />
        </mxCell>
        <mxCell id="rR9qykWhWmiOwImqZdHb-20" value="+Main(string[])" style="text;strokeColor=none;fillColor=none;align=left;verticalAlign=top;spacingLeft=4;spacingRight=4;overflow=hidden;rotatable=0;points=[[0,0.5],[1,0.5]];portConstraint=eastwest;" vertex="1" parent="rR9qykWhWmiOwImqZdHb-17">
          <mxGeometry y="26" width="140" height="26" as="geometry" />
        </mxCell>
        <mxCell id="rR9qykWhWmiOwImqZdHb-21" value="Fifth" style="swimlane;fontStyle=0;childLayout=stackLayout;horizontal=1;startSize=26;fillColor=none;horizontalStack=0;resizeParent=1;resizeParentMax=0;resizeLast=0;collapsible=1;marginBottom=0;" vertex="1" parent="1">
          <mxGeometry x="300" y="270" width="140" height="52" as="geometry" />
        </mxCell>
        <mxCell id="rR9qykWhWmiOwImqZdHb-24" value="+ Eratosthene(int)" style="text;strokeColor=none;fillColor=none;align=left;verticalAlign=top;spacingLeft=4;spacingRight=4;overflow=hidden;rotatable=0;points=[[0,0.5],[1,0.5]];portConstraint=eastwest;" vertex="1" parent="rR9qykWhWmiOwImqZdHb-21">
          <mxGeometry y="26" width="140" height="26" as="geometry" />
        </mxCell>
        <mxCell id="rR9qykWhWmiOwImqZdHb-25" value="First" style="swimlane;fontStyle=0;childLayout=stackLayout;horizontal=1;startSize=26;fillColor=none;horizontalStack=0;resizeParent=1;resizeParentMax=0;resizeLast=0;collapsible=1;marginBottom=0;" vertex="1" parent="1">
          <mxGeometry x="300" y="130" width="150" height="52" as="geometry" />
        </mxCell>
        <mxCell id="rR9qykWhWmiOwImqZdHb-28" value="+ ShowArgs(string[])" style="text;strokeColor=none;fillColor=none;align=left;verticalAlign=top;spacingLeft=4;spacingRight=4;overflow=hidden;rotatable=0;points=[[0,0.5],[1,0.5]];portConstraint=eastwest;" vertex="1" parent="rR9qykWhWmiOwImqZdHb-25">
          <mxGeometry y="26" width="150" height="26" as="geometry" />
        </mxCell>
        <mxCell id="rR9qykWhWmiOwImqZdHb-29" value="Fourth" style="swimlane;fontStyle=0;childLayout=stackLayout;horizontal=1;startSize=26;fillColor=none;horizontalStack=0;resizeParent=1;resizeParentMax=0;resizeLast=0;collapsible=1;marginBottom=0;" vertex="1" parent="1">
          <mxGeometry x="510" y="200" width="140" height="52" as="geometry" />
        </mxCell>
        <mxCell id="rR9qykWhWmiOwImqZdHb-32" value="+ Factorial(int)" style="text;strokeColor=none;fillColor=none;align=left;verticalAlign=top;spacingLeft=4;spacingRight=4;overflow=hidden;rotatable=0;points=[[0,0.5],[1,0.5]];portConstraint=eastwest;" vertex="1" parent="rR9qykWhWmiOwImqZdHb-29">
          <mxGeometry y="26" width="140" height="26" as="geometry" />
        </mxCell>
        <mxCell id="rR9qykWhWmiOwImqZdHb-33" value="Third" style="swimlane;fontStyle=0;childLayout=stackLayout;horizontal=1;startSize=26;fillColor=none;horizontalStack=0;resizeParent=1;resizeParentMax=0;resizeLast=0;collapsible=1;marginBottom=0;" vertex="1" parent="1">
          <mxGeometry x="300" y="200" width="140" height="52" as="geometry" />
        </mxCell>
        <mxCell id="rR9qykWhWmiOwImqZdHb-36" value="+ Fibonacci(int)" style="text;strokeColor=none;fillColor=none;align=left;verticalAlign=top;spacingLeft=4;spacingRight=4;overflow=hidden;rotatable=0;points=[[0,0.5],[1,0.5]];portConstraint=eastwest;" vertex="1" parent="rR9qykWhWmiOwImqZdHb-33">
          <mxGeometry y="26" width="140" height="26" as="geometry" />
        </mxCell>
        <mxCell id="rR9qykWhWmiOwImqZdHb-50" style="edgeStyle=orthogonalEdgeStyle;rounded=0;orthogonalLoop=1;jettySize=auto;html=1;exitX=1;exitY=0.5;exitDx=0;exitDy=0;" edge="1" parent="rR9qykWhWmiOwImqZdHb-33" source="rR9qykWhWmiOwImqZdHb-36" target="rR9qykWhWmiOwImqZdHb-36">
          <mxGeometry relative="1" as="geometry" />
        </mxCell>
        <mxCell id="rR9qykWhWmiOwImqZdHb-37" value="Second" style="swimlane;fontStyle=0;childLayout=stackLayout;horizontal=1;startSize=26;fillColor=none;horizontalStack=0;resizeParent=1;resizeParentMax=0;resizeLast=0;collapsible=1;marginBottom=0;" vertex="1" parent="1">
          <mxGeometry x="510" y="130" width="140" height="52" as="geometry" />
        </mxCell>
        <mxCell id="rR9qykWhWmiOwImqZdHb-40" value="+ ShowYears()" style="text;strokeColor=none;fillColor=none;align=left;verticalAlign=top;spacingLeft=4;spacingRight=4;overflow=hidden;rotatable=0;points=[[0,0.5],[1,0.5]];portConstraint=eastwest;" vertex="1" parent="rR9qykWhWmiOwImqZdHb-37">
          <mxGeometry y="26" width="140" height="26" as="geometry" />
        </mxCell>
        <mxCell id="rR9qykWhWmiOwImqZdHb-43" value="" style="endArrow=classic;html=1;entryX=0;entryY=0.5;entryDx=0;entryDy=0;exitX=0.999;exitY=0.176;exitDx=0;exitDy=0;exitPerimeter=0;" edge="1" parent="1" source="rR9qykWhWmiOwImqZdHb-20" target="rR9qykWhWmiOwImqZdHb-40">
          <mxGeometry width="50" height="50" relative="1" as="geometry">
            <mxPoint x="380" y="370" as="sourcePoint" />
            <mxPoint x="260" y="230" as="targetPoint" />
            <Array as="points">
              <mxPoint x="260" y="101" />
              <mxPoint x="300" y="101" />
              <mxPoint x="480" y="100" />
              <mxPoint x="480" y="169" />
            </Array>
          </mxGeometry>
        </mxCell>
        <mxCell id="rR9qykWhWmiOwImqZdHb-45" value="" style="endArrow=classic;html=1;exitX=1.004;exitY=0.307;exitDx=0;exitDy=0;entryX=0;entryY=0.5;entryDx=0;entryDy=0;exitPerimeter=0;" edge="1" parent="1" source="rR9qykWhWmiOwImqZdHb-20" target="rR9qykWhWmiOwImqZdHb-32">
          <mxGeometry width="50" height="50" relative="1" as="geometry">
            <mxPoint x="320" y="260" as="sourcePoint" />
            <mxPoint x="470" y="380" as="targetPoint" />
            <Array as="points">
              <mxPoint x="300" y="104" />
              <mxPoint x="300" y="120" />
              <mxPoint x="460" y="120" />
              <mxPoint x="460" y="239" />
            </Array>
          </mxGeometry>
        </mxCell>
        <mxCell id="rR9qykWhWmiOwImqZdHb-46" value="" style="endArrow=classic;html=1;exitX=1;exitY=0.5;exitDx=0;exitDy=0;entryX=0;entryY=0.5;entryDx=0;entryDy=0;" edge="1" parent="1" source="rR9qykWhWmiOwImqZdHb-20" target="rR9qykWhWmiOwImqZdHb-28">
          <mxGeometry width="50" height="50" relative="1" as="geometry">
            <mxPoint x="230" y="220" as="sourcePoint" />
            <mxPoint x="280" y="250" as="targetPoint" />
            <Array as="points">
              <mxPoint x="280" y="109" />
              <mxPoint x="280" y="169" />
            </Array>
          </mxGeometry>
        </mxCell>
        <mxCell id="rR9qykWhWmiOwImqZdHb-47" value="" style="endArrow=classic;html=1;exitX=1;exitY=0.614;exitDx=0;exitDy=0;exitPerimeter=0;entryX=0;entryY=0.5;entryDx=0;entryDy=0;" edge="1" parent="1" source="rR9qykWhWmiOwImqZdHb-20" target="rR9qykWhWmiOwImqZdHb-36">
          <mxGeometry width="50" height="50" relative="1" as="geometry">
            <mxPoint x="230" y="220" as="sourcePoint" />
            <mxPoint x="250" y="390" as="targetPoint" />
            <Array as="points">
              <mxPoint x="270" y="112" />
              <mxPoint x="270" y="239" />
            </Array>
          </mxGeometry>
        </mxCell>
        <mxCell id="rR9qykWhWmiOwImqZdHb-49" value="" style="endArrow=classic;html=1;exitX=1;exitY=0.859;exitDx=0;exitDy=0;exitPerimeter=0;entryX=0;entryY=0.5;entryDx=0;entryDy=0;" edge="1" parent="1" source="rR9qykWhWmiOwImqZdHb-20" target="rR9qykWhWmiOwImqZdHb-24">
          <mxGeometry width="50" height="50" relative="1" as="geometry">
            <mxPoint x="230" y="270" as="sourcePoint" />
            <mxPoint x="260" y="550" as="targetPoint" />
            <Array as="points">
              <mxPoint x="260" y="118" />
              <mxPoint x="260" y="309" />
            </Array>
          </mxGeometry>
        </mxCell>
      </root>
    </mxGraphModel>
  </diagram>
</mxfile>
